<svg xmlns="http://www.w3.org/2000/svg" width="20" height="22" viewBox="0 0 20 22">
  <g id="Group_163417" data-name="Group 163417" transform="translate(-1235 -76)">
    <path id="_2703085_bag_cart_ecommerce_shop_icon" data-name="2703085_bag_cart_ecommerce_shop_icon" d="M21.257,6.624a.694.694,0,0,0-.7-.645H16.868V4.9C16.868,2.752,14.8,1,12.25,1S7.631,2.752,7.631,4.9V5.98H3.939a.694.694,0,0,0-.7.645L2.251,22.27a.684.684,0,0,0,.188.514A.7.7,0,0,0,2.948,23h18.6a.7.7,0,0,0,.509-.217.684.684,0,0,0,.188-.514ZM9.027,4.9c0-1.395,1.446-2.53,3.223-2.53S15.473,3.51,15.473,4.9V5.98H9.027Zm-1.4,2.45V8.848a.7.7,0,0,0,1.4,0V7.355h6.446V8.848a.7.7,0,0,0,1.4,0V7.355H19.9l.6,9.534H3.99l.6-9.534ZM3.69,21.625l.242-3.82H20.567l.242,3.82Z" transform="translate(1232.75 75)" fill="#f69419"/>
  </g>
</svg>
