<svg xmlns="http://www.w3.org/2000/svg" width="24" height="24" viewBox="0 0 24 24">
  <g id="Group_163579" data-name="Group 163579" transform="translate(14381 2777)">
    <rect id="Rectangle_148218" data-name="Rectangle 148218" width="24" height="24" transform="translate(-14381 -2777)" fill="none"/>
    <g id="Group_163578" data-name="Group 163578" transform="translate(117.491 843.001)">
      <path id="Path_84024" data-name="Path 84024" d="M201.04,207.76h24v.966h-24Z" transform="translate(-14699.531 -3823.423)" fill="#6fafd1"/>
      <path id="Path_84025" data-name="Path 84025" d="M201.04,274.96h24v.966h-24Z" transform="translate(-14699.531 -3883.415)" fill="#6fafd1"/>
      <path id="Path_84026" data-name="Path 84026" d="M201.04,342.16h24v.966h-24Z" transform="translate(-14699.531 -3943.414)" fill="#6fafd1"/>
      <path id="Path_84027" data-name="Path 84027" d="M244.149,184.795a2.8,2.8,0,1,1-2.8-2.8,2.8,2.8,0,0,1,2.8,2.8" transform="translate(-14733.644 -3800)" fill="#6fafd1"/>
      <path id="Path_84028" data-name="Path 84028" d="M362.873,251.995a2.8,2.8,0,1,1-2.8-2.8,2.8,2.8,0,0,1,2.8,2.8" transform="translate(-14843.631 -3859.996)" fill="#6fafd1"/>
      <path id="Path_84029" data-name="Path 84029" d="M285.033,319.195a2.8,2.8,0,1,1-2.8-2.8,2.8,2.8,0,0,1,2.8,2.8" transform="translate(-14771.841 -3919.991)" fill="#6fafd1"/>
    </g>
  </g>
</svg>
