<svg xmlns="http://www.w3.org/2000/svg" width="24.001" height="24" viewBox="0 0 24.001 24">
  <g id="Group_163449" data-name="Group 163449" transform="translate(17012 3096)">
    <rect id="Rectangle_148176" data-name="Rectangle 148176" width="24" height="24" transform="translate(-17012 -3096)" fill="none"/>
    <g id="Group_163143" data-name="Group 163143" transform="translate(-1462.299 5.25)">
      <rect id="Rectangle_148102" data-name="Rectangle 148102" width="24" height="16" transform="translate(-15549.7 -3097.25)" fill="#fff"/>
      <path id="Path_83898" data-name="Path 83898" d="M101.569,139.931c-.021.379-.055.752-.11,1.117l-.062.352a5.849,5.849,0,0,1,.7-.041,6.022,6.022,0,0,1,.7.041l-.062-.352a9.887,9.887,0,0,1-.11-1.117,10.182,10.182,0,0,1,1.469.172,5.845,5.845,0,0,1-.041-.7,5.926,5.926,0,0,1,.041-.7,10.412,10.412,0,0,1-1.469.172,10.177,10.177,0,0,1,.172-1.469,5.852,5.852,0,0,1-.7.041,5.938,5.938,0,0,1-.7-.041,10.411,10.411,0,0,1,.172,1.469,10.178,10.178,0,0,1-1.469-.172,5.839,5.839,0,0,1,.041.7,6.012,6.012,0,0,1-.041.7,10.3,10.3,0,0,1,1.469-.172" transform="translate(-15632.258 -3233.469)" fill="#d51f3a"/>
      <rect id="Rectangle_148103" data-name="Rectangle 148103" width="2.316" height="16" transform="translate(-15538.859 -3097.25)" fill="#d51f3a"/>
      <rect id="Rectangle_148104" data-name="Rectangle 148104" width="24" height="2.316" transform="translate(-15549.7 -3090.411)" fill="#d51f3a"/>
      <path id="Path_84020" data-name="Path 84020" d="M101.569,139.931c-.021.379-.055.752-.11,1.117l-.062.352a5.849,5.849,0,0,1,.7-.041,6.022,6.022,0,0,1,.7.041l-.062-.352a9.887,9.887,0,0,1-.11-1.117,10.182,10.182,0,0,1,1.469.172,5.845,5.845,0,0,1-.041-.7,5.926,5.926,0,0,1,.041-.7,10.412,10.412,0,0,1-1.469.172,10.177,10.177,0,0,1,.172-1.469,5.852,5.852,0,0,1-.7.041,5.938,5.938,0,0,1-.7-.041,10.411,10.411,0,0,1,.172,1.469,10.178,10.178,0,0,1-1.469-.172,5.839,5.839,0,0,1,.041.7,6.012,6.012,0,0,1-.041.7,10.3,10.3,0,0,1,1.469-.172" transform="translate(-15632.258 -3223.837)" fill="#d51f3a"/>
      <path id="Path_84021" data-name="Path 84021" d="M101.569,139.931c-.021.379-.055.752-.11,1.117l-.062.352a5.849,5.849,0,0,1,.7-.041,6.022,6.022,0,0,1,.7.041l-.062-.352a9.887,9.887,0,0,1-.11-1.117,10.182,10.182,0,0,1,1.469.172,5.845,5.845,0,0,1-.041-.7,5.926,5.926,0,0,1,.041-.7,10.412,10.412,0,0,1-1.469.172,10.177,10.177,0,0,1,.172-1.469,5.852,5.852,0,0,1-.7.041,5.938,5.938,0,0,1-.7-.041,10.411,10.411,0,0,1,.172,1.469,10.178,10.178,0,0,1-1.469-.172,5.839,5.839,0,0,1,.041.7,6.012,6.012,0,0,1-.041.7,10.3,10.3,0,0,1,1.469-.172" transform="translate(-15647.345 -3223.837)" fill="#d51f3a"/>
      <path id="Path_84022" data-name="Path 84022" d="M101.569,139.931c-.021.379-.055.752-.11,1.117l-.062.352a5.849,5.849,0,0,1,.7-.041,6.022,6.022,0,0,1,.7.041l-.062-.352a9.887,9.887,0,0,1-.11-1.117,10.182,10.182,0,0,1,1.469.172,5.845,5.845,0,0,1-.041-.7,5.926,5.926,0,0,1,.041-.7,10.412,10.412,0,0,1-1.469.172,10.177,10.177,0,0,1,.172-1.469,5.852,5.852,0,0,1-.7.041,5.938,5.938,0,0,1-.7-.041,10.411,10.411,0,0,1,.172,1.469,10.178,10.178,0,0,1-1.469-.172,5.839,5.839,0,0,1,.041.7,6.012,6.012,0,0,1-.041.7,10.3,10.3,0,0,1,1.469-.172" transform="translate(-15647.346 -3233.469)" fill="#d51f3a"/>
    </g>
  </g>
</svg>
