<svg xmlns="http://www.w3.org/2000/svg" width="18" height="14.324" viewBox="0 0 18 14.324">
  <path id="_1608930_home_icon" data-name="1608930_home_icon" d="M105.32,261.251v5.359a.724.724,0,0,1-.715.715h-4.287v-4.287H97.46v4.287H93.173a.724.724,0,0,1-.715-.715v-5.359a.153.153,0,0,1,.006-.034.151.151,0,0,0,.006-.034l6.42-5.292,6.42,5.292A.155.155,0,0,1,105.32,261.251Zm2.49-.77-.692.826a.38.38,0,0,1-.234.123h-.034a.343.343,0,0,1-.234-.078l-7.726-6.442-7.726,6.442a.415.415,0,0,1-.268.078.38.38,0,0,1-.234-.123l-.692-.826a.362.362,0,0,1-.078-.262.324.324,0,0,1,.123-.24l8.027-6.688a1.385,1.385,0,0,1,1.7,0l2.724,2.278v-2.177a.344.344,0,0,1,.357-.357h2.144a.344.344,0,0,1,.357.357v4.555l2.445,2.032a.324.324,0,0,1,.123.24A.362.362,0,0,1,107.809,260.48Z" transform="translate(-89.889 -253)" fill="#6fafd1"/>
</svg>
