<svg id="_352523_lock_icon" data-name="352523_lock_icon" xmlns="http://www.w3.org/2000/svg" width="18" height="16" viewBox="0 0 18 16">
  <path id="Path_58" data-name="Path 58" d="M0,0H18V16H0Z" fill="none"/>
  <path id="Path_59" data-name="Path 59" d="M18.5,7h-.75V5.571A3.665,3.665,0,0,0,14,2a3.665,3.665,0,0,0-3.75,3.571V7H9.5A1.465,1.465,0,0,0,8,8.429v7.143A1.465,1.465,0,0,0,9.5,17h9A1.465,1.465,0,0,0,20,15.571V8.429A1.465,1.465,0,0,0,18.5,7ZM14,13.429A1.43,1.43,0,1,1,15.5,12,1.465,1.465,0,0,1,14,13.429ZM16.325,7h-4.65V5.571a2.328,2.328,0,0,1,4.65,0Z" transform="translate(-5 -1)" fill="#464646"/>
  <path id="Path_84009" data-name="Path 84009" d="M18.5,7h-.75V5.571A3.665,3.665,0,0,0,14,2a3.665,3.665,0,0,0-3.75,3.571V7H9.5A1.465,1.465,0,0,0,8,8.429v7.143A1.465,1.465,0,0,0,9.5,17h9A1.465,1.465,0,0,0,20,15.571V8.429A1.465,1.465,0,0,0,18.5,7ZM14,13.429A1.43,1.43,0,1,1,15.5,12,1.465,1.465,0,0,1,14,13.429ZM16.325,7h-4.65V5.571a2.328,2.328,0,0,1,4.65,0Z" transform="translate(-5 -1)" fill="#464646"/>
</svg>
