<svg xmlns="http://www.w3.org/2000/svg" width="28.5" height="31.93" viewBox="0 0 28.5 31.93">
  <g id="operatori_sosos-01" data-name="operatori sosos-01" transform="translate(-25.391 -15.296)">
    <path id="Path_69" data-name="Path 69" d="M45.914,60.625a6.437,6.437,0,0,1-1.261,1.921.553.553,0,0,0-.115.267,6.513,6.513,0,0,1-1.382,2.661c-.073.085-.061.115.03.145a10.991,10.991,0,0,0,1.327.752A21.821,21.821,0,0,0,47,67.5a12.8,12.8,0,0,0,1.291.564l1.176.546c.073.042.145.085.218.121A6.159,6.159,0,0,1,51.29,69.79c.218.218.406.455.606.685a.061.061,0,0,0,.036.061c.1.164.212.327.315.491a11.572,11.572,0,0,1,.9,1.9,19.454,19.454,0,0,1,.63,2.473c.024.139.042.285.067.424a1.332,1.332,0,0,1-1.061,1.764c-.242.085-.491.139-.733.206l-.158.036c-.812.145-1.624.3-2.431.442-.824.115-1.649.224-2.473.339-.291.03-.582.055-.879.085-.521.048-1.036.1-1.558.158-.824.055-1.649.1-2.473.158-.812.024-1.624.048-2.431.067L37.174,79c-.812-.048-1.624-.1-2.437-.152-.515-.048-1.024-.1-1.54-.152l-.933-.091c-.812-.109-1.624-.224-2.437-.333-.824-.152-1.649-.3-2.473-.449l-.194-.036c-.206-.061-.406-.121-.612-.188a2.58,2.58,0,0,1-.618-.279,1.1,1.1,0,0,1-.539-1.018c.012-.321.079-.63.115-.946a18.9,18.9,0,0,1,.624-2.437,13.819,13.819,0,0,1,.794-1.721,5.5,5.5,0,0,1,2.509-2.388c.133-.061.261-.139.394-.212.406-.188.812-.37,1.218-.558s.836-.364,1.261-.545c.158-.1.255-.036.352.1a4.51,4.51,0,0,0,.358.406,6.92,6.92,0,0,0,1.709,1.4,8.788,8.788,0,0,0,2.485.982c.036.048.079.1.115.145a1.282,1.282,0,0,0,.339.424,2.955,2.955,0,0,0,1.982.679c.515-.006,1.024,0,1.54-.018a2.767,2.767,0,0,0,.939-.145,1.7,1.7,0,0,0,1.182-.988,3.082,3.082,0,0,0,.133-2.534,1.923,1.923,0,0,0-1.309-1.327.731.731,0,0,0-.279-.073,19.05,19.05,0,0,0-2.2-.055,2.183,2.183,0,0,0-2.2.994.173.173,0,0,1-.23.073A5.2,5.2,0,0,1,35.1,66.22a11.463,11.463,0,0,0,1.061-.642c.079-.042.006-.073-.012-.1A6.658,6.658,0,0,1,34.731,62.7a.305.305,0,0,0-.079-.152A6.466,6.466,0,0,1,33.4,60.668a5.039,5.039,0,0,1-.394-2.479c.024-.133.048-.273.079-.4.061-.236.176-.424.449-.455.079-.006.079-.055.079-.1.006-.491.006-.976.012-1.467a.757.757,0,0,0,.018-.115,10.283,10.283,0,0,1,.17-2.364,6.171,6.171,0,0,1,.952-2.03c.115-.133.23-.273.345-.406.182-.158.358-.321.546-.473a5.53,5.53,0,0,1,1.576-.83,8.964,8.964,0,0,1,2.437-.345c.164.006.327.018.491.024a8.431,8.431,0,0,1,1.982.339,5.631,5.631,0,0,1,2.079,1.3c.109.127.218.255.321.382.1.158.212.309.315.467a6.532,6.532,0,0,1,.661,1.576,7.55,7.55,0,0,1,.164,1.691c-.006.261.012.521.018.782.006.491.006.988.012,1.479,0,.061.012.091.085.1a.508.508,0,0,1,.43.424c.042.145.061.291.091.436A5.475,5.475,0,0,1,45.914,60.625Z" transform="translate(0 -31.849)" fill="#6fafd1"/>
    <path id="Path_70" data-name="Path 70" d="M113.962,28.771a.929.929,0,0,1-.3-.273c-.055-.048-.048-.1-.048-.176,0-.661,0-1.321-.006-1.982.018-.812.018-1.624,0-2.431.024-.485.018-.976,0-1.461a3.571,3.571,0,0,0-.164-1.012,1.074,1.074,0,0,0-.085-.339,5.646,5.646,0,0,0-1.17-2.1,5.227,5.227,0,0,0-.988-.982c-.079-.067-.158-.133-.242-.194a6.98,6.98,0,0,0-2.212-1.115,3.554,3.554,0,0,0-.873-.224,6.294,6.294,0,0,0-1.612-.176,7.5,7.5,0,0,0-1.8.176,2.542,2.542,0,0,0-.63.164,7.042,7.042,0,0,0-2.473,1.218,5.529,5.529,0,0,0-1.146,1.079,1.823,1.823,0,0,0-.309.376,5.587,5.587,0,0,0-.982,2.115.126.126,0,0,0-.03.121c-.012.048-.03.1-.042.152a10.742,10.742,0,0,0-.079,2.206q-.027,1.218,0,2.437c-.006.3-.012.612-.006.915.006.521-.024,1.036.012,1.558a5.234,5.234,0,0,0,.1,1.146,5.869,5.869,0,0,0,.255,1.291,8.206,8.206,0,0,0,1.018,2.479,5.854,5.854,0,0,0,1.188,1.485,4.672,4.672,0,0,0,1.382.946,3.73,3.73,0,0,0,1.127.424,2.938,2.938,0,0,0,.455.115c.176.055.279.018.309-.182a1.275,1.275,0,0,1,.115-.285c.036-.048.073-.091.1-.139a1.194,1.194,0,0,1,1.121-.576,3.119,3.119,0,0,0,.333-.012c.539.006,1.079.018,1.618.006a1.576,1.576,0,0,1,.861.206,1.84,1.84,0,0,1,.424.442,1.555,1.555,0,0,1,.17.636c0,.23-.012.455,0,.685a1.367,1.367,0,0,1-.436,1.109c-.055.042-.1.085-.158.121a1.628,1.628,0,0,1-.873.218c-.533-.006-1.067.006-1.6.012-.121-.006-.242-.012-.37-.012a1.349,1.349,0,0,1-.964-.364,1.789,1.789,0,0,1-.4-.727.13.13,0,0,0-.121-.109c-.194-.024-.388-.061-.582-.091-.152-.042-.3-.091-.449-.127a7.353,7.353,0,0,1-2.03-.964c-.17-.127-.333-.261-.5-.388a8.062,8.062,0,0,1-1.582-1.9c-.115-.188-.224-.376-.339-.57h.006c-.036-.079-.067-.158-.1-.23a12.353,12.353,0,0,1-.782-2.218c-.1-.539-.206-1.073-.255-1.618-.018-.2-.042-.4-.042-.606,0-.145-.03-.236-.2-.224a.819.819,0,0,1-.17-.024,1.666,1.666,0,0,1-.939-.655,1.9,1.9,0,0,1-.158-.988c.006-.267-.006-.533-.006-.8V23.91c0-.206.006-.418.006-.624a1.536,1.536,0,0,1,.158-.539,1.679,1.679,0,0,1,.9-.642c.145-.042.345.03.424-.115a1.377,1.377,0,0,0,.085-.455.52.52,0,0,0,.006-.1A7.907,7.907,0,0,1,98.9,19c.048-.03.03-.079.042-.115.061.012.079-.042.1-.073a8.364,8.364,0,0,1,4.619-3.164,1.42,1.42,0,0,0,.145-.055,10.951,10.951,0,0,1,2.473-.3,9.969,9.969,0,0,1,2.467.345,10.488,10.488,0,0,1,2.121.891,1.587,1.587,0,0,0,.321.2,8.488,8.488,0,0,1,2.279,2.23.769.769,0,0,0,.158.236,7.922,7.922,0,0,1,.891,2.249c.024.164.048.321.067.485.012.079.03.121.127.133a1.5,1.5,0,0,1,1.346.946,5.125,5.125,0,0,1,.048.861v2.479c-.036.509.036,1.024-.048,1.527a1.666,1.666,0,0,1-.939.9A2.862,2.862,0,0,1,113.962,28.771Z" transform="translate(-66.611 0)" fill="#6fafd1"/>
  </g>
</svg>
