<svg id="Group_3091" data-name="Group 3091" xmlns="http://www.w3.org/2000/svg" width="13" height="13" viewBox="0 0 13 13">
  <g id="Search">
    <path id="Path_2" data-name="Path 2" d="M1.625,5.688A4.023,4.023,0,0,1,5.688,1.625,4.023,4.023,0,0,1,9.75,5.688,4.023,4.023,0,0,1,5.688,9.75,4.023,4.023,0,0,1,1.625,5.688Zm9.994,7.069a.8.8,0,0,0,1.137-1.137L10.237,9.1a5.563,5.563,0,0,0,1.138-3.413A5.652,5.652,0,0,0,5.688,0,5.652,5.652,0,0,0,0,5.688a5.652,5.652,0,0,0,5.688,5.688A5.563,5.563,0,0,0,9.1,10.237Z" fill="#fff"/>
  </g>
</svg>
