<svg xmlns="http://www.w3.org/2000/svg" width="180" height="68" viewBox="0 0 180 68">
  <g id="Group_163439" data-name="Group 163439" transform="translate(-143 -2976)">
    <g id="Group_163437" data-name="Group 163437" transform="translate(4 -1)">
      <circle id="Ellipse_1" data-name="Ellipse 1" cx="34" cy="34" r="34" transform="translate(139 2977)" fill="#6fafd1"/>
      <g id="Group_163436" data-name="Group 163436" transform="translate(-5 1)">
        <rect id="Rectangle_148172" data-name="Rectangle 148172" width="21" height="24" transform="translate(168.578 2995.207)" fill="#fff"/>
        <path id="Path_84008" data-name="Path 84008" d="M104.869,128.445H89.852a2.788,2.788,0,0,1-2.934-2.942c.085-2.06.24-4.121.371-6.181q.143-2.3.3-4.6.285-4.48.571-8.954.18-2.9.356-5.8c.06-.966.105-1.936.18-2.9a2.856,2.856,0,0,1,2.724-2.58c.14,0,.28,0,.421,0,8.723,0,17.441.02,26.164-.015a3.065,3.065,0,0,1,3.185,3.016c.17,3.764.461,7.518.7,11.282.155,2.486.3,4.977.456,7.464.18,2.887.351,5.78.561,8.667a3.113,3.113,0,0,1-1.157,3.031,2.818,2.818,0,0,1-1.728.54C114.964,128.44,109.916,128.445,104.869,128.445ZM98.685,104.6h-.01V98.69a1.075,1.075,0,0,0-.891-1.139c-.776-.154-1.352.386-1.352,1.273q0,5.572,0,11.148a9.387,9.387,0,0,0,.646,3.452,8.419,8.419,0,0,0,10.085,5.1,8.749,8.749,0,0,0,6.234-8.37c.01-1.872,0-3.744,0-5.616v-5.78a1.129,1.129,0,0,0-.836-1.2,1.118,1.118,0,0,0-1.407,1.2v11.025a7.289,7.289,0,0,1-.19,1.773,6.274,6.274,0,0,1-6.59,4.626,6.166,6.166,0,0,1-5.678-5.928C98.645,108.372,98.685,106.485,98.685,104.6Z" transform="translate(73.086 2898.54)" fill="#f69419"/>
      </g>
    </g>
    <g id="Group_57" data-name="Group 57" transform="translate(219 2993)">
      <path id="Path_31" data-name="Path 31" d="M255.608,109.957h6.215c.822,0,1.016.194,1.036,1.022.013.581.007,1.163,0,1.744a.887.887,0,0,1-.989.982c-.3.007-.608-.013-.909.007-.334.02-.508-.087-.515-.461-.007-.648-.334-.9-1.016-.9q-3.829.05-7.652,0c-.728-.007-1.016.294-1,.989.013.528.013,1.063,0,1.591-.013.688.281,1,1,.989,3.235-.02,6.469-.013,9.7-.007,1.183,0,1.37.18,1.37,1.35,0,1.971.007,3.943,0,5.914-.007.962-.241,1.19-1.216,1.19H249.593c-1,0-1.2-.207-1.21-1.19,0-.508-.007-1.009,0-1.517.013-.835.241-1.056,1.1-1.069.227-.007.454.02.682-.007.434-.047.642.08.642.568,0,.595.374.8.956.789,2.58-.02,5.152-.02,7.732,0a.828.828,0,0,0,.956-.9c.027-.5.013-1.009.007-1.517-.007-.976-.234-1.216-1.2-1.216-3.235-.007-6.469,0-9.7,0-1.043,0-1.17-.127-1.176-1.176v-5.988c0-1.043.154-1.2,1.163-1.2Q252.58,109.96,255.608,109.957Z" transform="translate(-210.044 -109.93)" fill="#6fafd1"/>
      <path id="Path_32" data-name="Path 32" d="M303.628,109.95h6.142c.9,0,1.049.147,1.049,1.063q.01,6.135,0,12.277c0,.855-.214,1.063-1.083,1.063q-6.135.01-12.276,0c-.855,0-1.043-.174-1.043-1.016-.007-4.143,0-8.287-.007-12.43,0-.715.294-.982,1.009-.976C299.484,109.963,301.556,109.95,303.628,109.95Zm.074,2.406c-1.31,0-2.626.02-3.936-.007-.688-.013-.942.261-.936.942q.03,3.859,0,7.719c-.007.7.294.929.956.922q3.859-.03,7.719,0c.668.007.9-.307.9-.916,0-2.6-.007-5.2.007-7.8.007-.662-.3-.889-.929-.875C306.227,112.376,304.964,112.356,303.7,112.356Z" transform="translate(-223.911 -109.923)" fill="#6fafd1"/>
      <path id="Path_33" data-name="Path 33" d="M232.8,117.151c0,2.045.007,4.1,0,6.142,0,.889-.18.976-1.069,1.076a3.061,3.061,0,0,1-3.1-1.444c-2.032-2.767-4.237-5.406-6.382-8.093-.261-.327-.495-.8-1.022-.595-.488.194-.434.688-.428,1.116v7.966c0,.849-.194,1.016-1.1,1.029-1.029.013-1.3-.18-1.3-1.016q-.01-6.185,0-12.363c0-.849.194-1.022,1.022-1.036,2.065-.027,2.052-.013,3.448,1.758,2.045,2.6,4.11,5.186,6.162,7.779.261.327.5.662,1,.474s.374-.615.374-.976c.007-2.653,0-5.306.007-7.966,0-.949.167-1.083,1.276-1.083.982,0,1.123.127,1.123,1.063C232.806,113.054,232.8,115.106,232.8,117.151Z" transform="translate(-201.395 -109.92)" fill="#6fafd1"/>
      <path id="Path_34" data-name="Path 34" d="M327.574,109.96h6.208c.822,0,1.023.194,1.023,1.029q.01,3.6,0,7.2c0,.875-.187,1.043-1.083,1.043h-9.543c-1.276,0-1.443.167-1.443,1.437,0,.882-.007,1.764,0,2.653.007.548-.207.849-.782.889-1.029.074-1.484-.114-1.6-.722a3.6,3.6,0,0,1-.027-.6V111.223c0-1.129.127-1.25,1.256-1.25C323.584,109.96,325.576,109.96,327.574,109.96Zm0,2.406c-1.31,0-2.62.02-3.93-.007-.621-.013-.889.274-.9.849-.013.936-.013,1.865,0,2.8a.786.786,0,0,0,.822.882q4.01.02,8.02,0a.774.774,0,0,0,.829-.875c-.007-.909-.007-1.818,0-2.72.007-.668-.3-.942-.976-.929C330.147,112.386,328.857,112.366,327.574,112.366Z" transform="translate(-230.81 -109.933)" fill="#6fafd1"/>
      <path id="Path_35" data-name="Path 35" d="M194.507,117.157c0-2.072.02-4.143-.007-6.215-.007-.708.227-1.016.962-1,1.23.02,1.444.12,1.444,1,.013,3.281.007,6.569.007,9.851,0,1.056.087,1.136,1.109,1.143H205.3c1.049,0,1.19-.134,1.19-1.163v-9.7c0-1,.127-1.116,1.149-1.116,1.109,0,1.25.114,1.25,1.1v12.2c0,.909-.2,1.1-1.123,1.1q-6.1.01-12.2,0c-.909,0-1.056-.154-1.056-1.063C194.5,121.247,194.507,119.2,194.507,117.157Z" transform="translate(-194.5 -109.926)" fill="#6fafd1"/>
      <path id="Path_36" data-name="Path 36" d="M272.409,117.1v-6.142c0-.889.147-1.009,1.176-1.009,1.076,0,1.23.12,1.23,1.036.007,1.337.02,2.68-.007,4.016-.013.655.281.909.909.909,2.6-.007,5.206-.013,7.806.007.662.007.9-.274.889-.909-.02-1.337-.013-2.68,0-4.016.007-.922.154-1.036,1.23-1.036,1.016,0,1.169.127,1.169,1.016q.01,6.175,0,12.357c0,.909-.18,1.043-1.25,1.036-.936-.007-1.143-.194-1.149-1.076-.007-1.29.007-2.58-.007-3.863-.007-.909-.207-1.109-1.123-1.109-2.473-.007-4.952-.007-7.425,0-.842,0-1.036.194-1.036,1.016-.007,1.317.007,2.626-.007,3.943-.007.9-.234,1.089-1.223,1.089s-1.183-.187-1.183-1.123C272.4,121.2,272.409,119.152,272.409,117.1Z" transform="translate(-216.984 -109.93)" fill="#6fafd1"/>
      <path id="Path_37" data-name="Path 37" d="M242.419,117.084c0-2.045-.007-4.09,0-6.135,0-.869.147-.989,1.116-.989,1.076,0,1.29.147,1.29,1q.01,6.175,0,12.35c0,.875-.241,1.069-1.25,1.063-.936,0-1.156-.2-1.156-1.069Z" transform="translate(-208.586 -109.933)" fill="#6fafd1"/>
      <path id="Path_38" data-name="Path 38" d="M246.759,149.071c0-1.136-.013-2.272,0-3.408a2.093,2.093,0,0,1,1.965-2.266,3.535,3.535,0,0,1,2.7.374c.221.147.368.06.548-.047a4.068,4.068,0,0,1,3.088-.247,2.148,2.148,0,0,1,1.5,2.219c.027,2.346,0,4.7.013,7.05.007.454-.18.548-.588.541-1.464-.027-1.17.107-1.183-1.143-.02-1.691-.007-3.388-.007-5.079,0-.281-.013-.555,0-.835.087-1.4-.508-1.377-1.6-1.283-.575.047-.675.548-.682,1.022-.02,1.109-.053,2.225.007,3.335.033.688-.254.769-.835.769-.6,0-.936-.06-.882-.8.074-.982.02-1.971.013-2.954-.007-1.156-.207-1.39-1.176-1.39-1.016,0-1.216.227-1.216,1.43-.007,2.072-.033,4.143.02,6.215.02.742-.341.722-.869.728s-.9-.007-.855-.735C246.805,151.4,246.759,150.234,246.759,149.071Z" transform="translate(-209.685 -119.305)" fill="#6fafd1"/>
      <path id="Path_39" data-name="Path 39" d="M236.439,144.177a2.3,2.3,0,0,1,2.7-.688c.949.374,1.069,1.183,1.063,2.058-.007,1.617,0,3.235,0,4.845,0,2.065-.782,2.854-2.82,2.847a7.231,7.231,0,0,1-1.738-.073,2.1,2.1,0,0,1-1.791-2.052,17.18,17.18,0,0,1,0-2.272,2.138,2.138,0,0,1,2.219-2.118c.628-.02,1.263-.007,1.891-.007.307,0,.588-.047.541-.441-.06-.461.274-1.076-.348-1.343-.361-.154-.762-.107-.735.5.013.274.174.708-.194.8a3.205,3.205,0,0,1-1.57-.02c-.147-.04-.14-.267-.114-.408.16-.849-.3-.982-.989-.909-.374.04-.815.08-.722-.535.053-.348-.207-.789.194-1.036a2.6,2.6,0,0,1,2.139.408A4.745,4.745,0,0,1,236.439,144.177Zm2.072,5.48c0-1.4,0-1.4-1.437-1.4-.174,0-.354.013-.528,0-.682-.047-.962.327-1,.942-.02.327-.007.655-.007.982,0,1.35.18,1.53,1.517,1.524,1.236,0,1.45-.221,1.464-1.444C238.511,150.058,238.511,149.857,238.511,149.657Z" transform="translate(-205.989 -119.282)" fill="#6fafd1"/>
      <path id="Path_40" data-name="Path 40" d="M208.217,148.3c0-.835-.007-1.671,0-2.5a2.02,2.02,0,0,1,2.092-2.272c1.056-.067,2.118-.02,3.181-.027.789,0,.394.6.454.949s.094.722-.488.7c-.882-.04-1.771-.007-2.653-.033-.615-.02-.835.241-.849.855-.013.668.394.568.8.568.508,0,1.009-.013,1.517,0a2.18,2.18,0,0,1,2.292,2.286c.013.755.02,1.517,0,2.272a2.078,2.078,0,0,1-1.9,2.179,10.368,10.368,0,0,1-2.493-.007,2.182,2.182,0,0,1-1.951-2.319V150.8C208.217,149.974,208.217,149.139,208.217,148.3Zm1.691,1.383c0,2.065.087,2.159,1.858,2.105.855-.027,1.1-.281,1.116-1.163.007-.381,0-.755,0-1.136,0-1.223-.187-1.417-1.39-1.417C209.907,148.076,209.907,148.076,209.907,149.687Z" transform="translate(-199.048 -119.372)" fill="#6fafd1"/>
      <path id="Path_41" data-name="Path 41" d="M201.654,148.291c0,.909.02,1.818-.007,2.727a2.06,2.06,0,0,1-1.811,2.179,7.954,7.954,0,0,1-2.64,0,2.1,2.1,0,0,1-1.878-2.219c-.04-.682.007-1.363-.013-2.045-.013-.388.134-.515.528-.535,1.243-.053,1.243-.067,1.243,1.176v.227c0,1.871.394,2.185,2.252,1.838a.741.741,0,0,0,.621-.822c.027-1.718.02-3.435,0-5.153-.007-.321-.087-.722-.515-.715s-.481.4-.515.722c-.033.374.007.762-.02,1.136-.02.281.174.722-.16.815a3.974,3.974,0,0,1-1.35.013c-.174-.013-.16-.227-.167-.374-.007-.327,0-.655-.007-.982-.013-1.129-.2-1.37-1.3-1.337-.7.02-.608-.394-.621-.822-.013-.468-.013-.855.648-.815a5.234,5.234,0,0,1,1.818.428c.6.267,1.069-.488,1.731-.434a2.154,2.154,0,0,1,2.145,2.112c.007.074.007.154.013.227Z" transform="translate(-194.764 -119.306)" fill="#6fafd1"/>
      <path id="Path_42" data-name="Path 42" d="M277.635,149.162c0-1.136-.013-2.272.007-3.408a2.138,2.138,0,0,1,2.058-2.346,7.527,7.527,0,0,1,2.259,0,2.145,2.145,0,0,1,2.025,2.232c.027,2.372,0,4.745.02,7.124.007.461-.194.541-.588.535-1.437-.027-1.17.114-1.176-1.149-.013-1.891-.007-3.789-.007-5.68,0-.227-.007-.454,0-.682.007-.568-.3-.8-.842-.849-1.865-.16-2.058.02-2.058,1.885,0,1.945-.033,3.889.02,5.834.02.769-.421.635-.869.642s-.9.114-.855-.648C277.689,151.487,277.635,150.325,277.635,149.162Z" transform="translate(-218.803 -119.315)" fill="#6fafd1"/>
      <path id="Path_43" data-name="Path 43" d="M221.1,149.079c0-1.136-.007-2.272,0-3.408a2.072,2.072,0,0,1,1.951-2.272,6.624,6.624,0,0,1,2.179-.027,2.225,2.225,0,0,1,2.205,2.479c.033,2.3,0,4.6.02,6.89.007.454-.187.548-.588.541-1.457-.027-1.163.107-1.176-1.149-.02-1.464-.007-2.927-.007-4.391V146.68c0-1.764-.033-1.8-1.764-1.764-.875.013-1.129.254-1.129,1.129-.007,2.172-.04,4.344.013,6.516.02.735-.321.735-.862.728s-.9.007-.862-.735C221.145,151.4,221.1,150.242,221.1,149.079Z" transform="translate(-202.269 -119.306)" fill="#6fafd1"/>
      <path id="Path_44" data-name="Path 44" d="M267.975,153.257c-2.64.007-3.235-.6-3.235-3.255v-.3c0-1.17.254-1.357,1.417-1.143.314.06.348.234.348.474,0,.608,0,1.21.007,1.818a.732.732,0,0,0,.789.809c1.951.14,2.2-.087,2.112-2.052-.04-.909-.281-1.136-1.21-1.156h-.3c-.782,0-1.143-.581-.842-1.323.094-.221.254-.207.428-.214.354-.007.708.007,1.063-.007.495-.02.835-.267.835-.782-.007-.535-.4-.6-.849-.622-1.444-.053-2.078-.555-2.205-1.664-.033-.307.02-.561.348-.5.5.087,1.183-.4,1.477.454.067.187.368.107.561.114,2.132.094,3.047,1.7,1.985,3.542a.491.491,0,0,0-.013.588,5.133,5.133,0,0,1,.174,3.963,1.955,1.955,0,0,1-1.891,1.276C268.629,153.284,268.3,153.257,267.975,153.257Z" transform="translate(-215.033 -119.301)" fill="#6fafd1"/>
    </g>
  </g>
</svg>
